<svg viewBox="0 0 512 512" xmlns="http://www.w3.org/2000/svg">
  <!-- Background -->
  <rect width="512" height="512" rx="100" fill="#111827" />
  
  <!-- Calendar Grid -->
  <rect x="96" y="144" width="320" height="240" rx="16" fill="#1F2937" stroke="#4B5563" stroke-width="8" />
  
  <!-- Calendar Header -->
  <rect x="96" y="144" width="320" height="64" rx="16" fill="#2563EB" />
  
  <!-- Calendar Days -->
  <g fill="#4B5563">
    <rect x="128" y="224" width="48" height="48" rx="8" />
    <rect x="192" y="224" width="48" height="48" rx="8" />
    <rect x="256" y="224" width="48" height="48" rx="8" />
    <rect x="320" y="224" width="48" height="48" rx="8" />
    <rect x="128" y="288" width="48" height="48" rx="8" />
    <rect x="192" y="288" width="48" height="48" rx="8" />
    <rect x="256" y="288" width="48" height="48" rx="8" />
    <rect x="320" y="288" width="48" height="48" rx="8" />
  </g>
  
  <!-- Checkmarks -->
  <path d="M148 248 L160 260 L184 236" stroke="#10B981" stroke-width="8" stroke-linecap="round" stroke-linejoin="round" fill="none" />
  <path d="M276 248 L288 260 L312 236" stroke="#10B981" stroke-width="8" stroke-linecap="round" stroke-linejoin="round" fill="none" />
  <path d="M212 312 L224 324 L248 300" stroke="#10B981" stroke-width="8" stroke-linecap="round" stroke-linejoin="round" fill="none" />
  <path d="M340 312 L352 324 L376 300" stroke="#10B981" stroke-width="8" stroke-linecap="round" stroke-linejoin="round" fill="none" />
  
  <!-- X Marks -->
  <g stroke="#EF4444" stroke-width="8" stroke-linecap="round">
    <path d="M204 236 L228 260" />
    <path d="M228 236 L204 260" />
    <path d="M332 236 L356 260" />
    <path d="M356 236 L332 260" />
  </g>
  
  <!-- Text "MAY" in the header -->
  <text x="256" y="184" font-family="Arial, sans-serif" font-size="32" font-weight="bold" text-anchor="middle" fill="white">MAY</text>
</svg>